<?xml version="1.0" standalone="no"?><!DOCTYPE svg PUBLIC "-//W3C//DTD SVG 1.1//EN" "http://www.w3.org/Graphics/SVG/1.1/DTD/svg11.dtd"><svg t="1545377404206" class="icon" style="" viewBox="0 0 1024 1024" version="1.1" xmlns="http://www.w3.org/2000/svg" p-id="1772" xmlns:xlink="http://www.w3.org/1999/xlink" width="200" height="200"><defs><style type="text/css"></style></defs><path d="M1024 967.758769 697.737846 641.496615C753.112615 573.676308 787.692308 488.211692 787.692308 393.846154c0-217.481846-176.364308-393.846154-393.846154-393.846154C176.364308 0 0 176.364308 0 393.846154s176.364308 393.846154 393.846154 393.846154c94.365538 0 179.830154-34.579692 247.650462-89.875692L967.758769 1024 1024 967.758769zM56.635077 393.846154c0-186.289231 151.000615-337.211077 337.211077-337.211077 186.289231 0 337.211077 151.000615 337.211077 337.211077 0 186.210462-151.000615 337.211077-337.211077 337.211077C207.635692 731.057231 56.635077 580.056615 56.635077 393.846154z" p-id="1773"></path></svg>